PathFileType	4	(X/Y/Z)	Walk6.trc
DataRate	CameraRate	NumFrames	NumMarkers	Units	OrigDataRate	OrigDataStartFrame	OrigNumFrames
200.000000	200.000000	4	60	mm	200.000000	743	789
Frame#	Times		RCAR		LToe		LTB1		LMT5		LMT1		LTB4		LTB3		LLFC		RWRR		RWRU		RACR1		RFA1		LUA1		LFA1		STRN		LFHD		LACR1		LElbow		LTH2		LCAR		C7		LPSI		RTB2		LASI		LWRU		RPSI		RLFC		CLAV		LWRR		RToe		RTB3		RMT1		RMT5		LTH1		RMFC		RTB1		LMFC		LTH4		LTH3		RCAL		RTB4		RLMAL		LBHD		RTH2		LTB2		RMMAL		RBHD		RBack		RElbow		RTH4		RASI		RTH3		LCAL		RUA1		LMMAL		RTH1		T10		LElbowM		LLMAL		RElbowM
			X1	Y1	Z1	X2	Y2	Z2	X3	Y3	Z3	X4	Y4	Z4	X5	Y5	Z5	X6	Y6	Z6	X7	Y7	Z7	X8	Y8	Z8	X9	Y9	Z9	X10	Y10	Z10	X11	Y11	Z11	X12	Y12	Z12	X13	Y13	Z13	X14	Y14	Z14	X15	Y15	Z15	X16	Y16	Z16	X17	Y17	Z17	X18	Y18	Z18	X19	Y19	Z19	X20	Y20	Z20	X21	Y21	Z21	X22	Y22	Z22	X23	Y23	Z23	X24	Y24	Z24	X25	Y25	Z25	X26	Y26	Z26	X27	Y27	Z27	X28	Y28	Z28	X29	Y29	Z29	X30	Y30	Z30	X31	Y31	Z31	X32	Y32	Z32	X33	Y33	Z33	X34	Y34	Z34	X35	Y35	Z35	X36	Y36	Z36	X37	Y37	Z37	X38	Y38	Z38	X39	Y39	Z39	X40	Y40	Z40	X41	Y41	Z41	X42	Y42	Z42	X43	Y43	Z43	X44	Y44	Z44	X45	Y45	Z45	X46	Y46	Z46	X47	Y47	Z47	X48	Y48	Z48	X49	Y49	Z49	X50	Y50	Z50	X51	Y51	Z51	X52	Y52	Z52	X53	Y53	Z53	X54	Y54	Z54	X55	Y55	Z55	X56	Y56	Z56	X57	Y57	Z57	X58	Y58	Z58	X59	Y59	Z59	X60	Y60	Z60

743	3.715	1225.4	867.63	354.25	1298.1	31.712	-19.553	1168	360.65	-37.598	1201.5	27.056	-105.02	1241.1	46.792	-9.2627	1144.7	279.29	-27.91	1132.1	196.16	-21.096	1146.4	505.01	-149.04	1236	908.26	291.66	1164.7	902.57	345.41	1170.2	1509.8	183.61	1180.3	1045.7	317.64	1178.6	1359.9	-271.23	1242.9	1068.3	-329.8	1295.3	1306.1	-5.2149	1337.4	1706.7	-23.816	1181.1	1542.7	-187.63	1148.3	1191.3	-323.21	1225.8	739.33	-185.29	1303	912.58	-345.02	1071.1	1573.1	1.8535	1003.4	1084.3	-71.402	1224	323.95	186.09	1231.7	1046.9	-166.55	1225.7	936.76	-342.85	999.39	1074.9	37.228	1279.8	549.19	212.31	1236.7	1480.1	-12.916	1300.3	948.15	-286.81	1261.3	50.742	138.37	1186.4	253.5	115.91	1221.3	77.251	118.17	1165.8	70.951	197.49	1163.2	821.68	-214.79	1282.7	531.83	67.487	1276.1	402.54	129.25	1148.8	509.29	-4.9223	1167.9	735.72	-195.68	1170.9	651.22	-175.8	1016.7	154.97	104.42	1226.8	325.96	125.23	1079	163.66	155.31	1172.7	1710.5	-59.74	1253.7	769.29	218.89	1172.8	265.34	-95.174	1129	177.08	67.331	1154.1	1704.3	80.392	1005.8	1452.1	115.33	1093.3	1174	300.83	1198.4	741.56	216.06	1214.9	1059.7	151.07	1236.9	665.35	213.34	1016.4	46.233	-45.471	1141.1	1331.3	256.84	1099.1	97.895	18.108	1162.4	821.69	214.74	1018.2	1216.6	-20.79	1114	1161.2	-239.89	1085.5	66.614	-80.471	1070.5	1146.5	210.03
744	3.72	1228.6	867.23	354.33	1298.2	31.709	-19.612	1169.2	360.23	-37.479	1201.5	27	-105.03	1241.1	46.818	-9.2896	1146.3	278.89	-28.062	1132.6	196	-20.891	1148.5	504.79	-149.06	1239.3	907.85	291.76	1167.9	902.22	345.37	1174.7	1509.4	183.69	1183.8	1045.3	317.63	1183.8	1359.7	-271.32	1249	1068.4	-330.08	1300.1	1305.9	-5.2872	1342.1	1706.5	-23.527	1185.9	1542.5	-187.6	1154	1191.1	-323.39	1229.4	738.3	-184.89	1309.5	912.88	-345.37	1075.8	1572.8	1.8061	1008.2	1084	-71.145	1236.1	322.72	186.19	1236.3	1046.6	-166.56	1232.3	936.78	-343.01	1004.3	1074.5	37.439	1287.3	549.38	212.24	1241.4	1479.8	-12.855	1306.9	948.53	-287.19	1280.1	50.852	138.97	1200.2	251.39	116.07	1239.4	76.193	118.75	1183.9	68.804	197.91	1167.3	821.44	-214.61	1289.7	532.01	67.464	1287	402.07	129.29	1151	509.18	-4.9362	1171.5	735.56	-195.6	1173.9	650.98	-175.76	1032.9	148.58	104.42	1239.7	325.15	124.87	1094.9	158.98	155.42	1177.4	1710.3	-59.595	1260	769.9	219.27	1173.9	263.78	-96.084	1145	173.64	67.452	1158.7	1704	80.509	1010.4	1451.8	115.14	1096.9	1173.8	300.76	1205	741.82	216.5	1219.9	1059.4	150.93	1243.8	665.78	213.66	1016.4	46.284	-45.401	1145.1	1331	256.87	1099.2	97.921	18.168	1168.5	821.8	215.2	1023.1	1216.3	-20.634	1119.9	1160.8	-240.07	1085.6	66.618	-80.417	1074.2	1146.4	209.94
745	3.725	1231.8	866.79	354.43	1298.3	31.707	-19.671	1170.5	359.83	-37.361	1201.5	26.94	-105.03	1241.1	46.837	-9.3135	1147.8	278.51	-28.206	1133.2	195.83	-20.713	1150.6	504.58	-149.07	1242.6	907.38	291.86	1171.2	901.83	345.36	1179.2	1509	183.77	1187.3	1044.9	317.62	1189	1359.5	-271.39	1255.1	1068.5	-330.33	1305	1305.7	-5.3424	1346.7	1706.3	-23.232	1190.7	1542.2	-187.57	1159.6	1190.8	-323.57	1232.9	737.25	-184.49	1316.1	913.14	-345.68	1080.6	1572.5	1.7721	1013	1083.7	-70.883	1248.2	321.47	186.29	1241	1046.3	-166.55	1238.8	936.76	-343.16	1009.2	1074.1	37.658	1294.7	549.47	212.18	1246.2	1479.5	-12.784	1313.6	948.86	-287.53	1298.8	51.107	139.52	1214.1	249.3	116.24	1257.5	75.274	119.3	1202.1	66.767	198.3	1171.4	821.19	-214.41	1296.6	532.12	67.436	1297.7	401.6	129.38	1153.1	509.07	-4.9581	1175	735.4	-195.52	1177	650.74	-175.71	1049.3	142.26	104.46	1252.6	324.35	124.48	1110.9	154.36	155.54	1182.1	1710	-59.437	1266.3	770.41	219.64	1175.1	262.16	-96.972	1161	170.29	67.572	1163.3	1703.6	80.64	1015	1451.4	114.97	1100.7	1173.5	300.7	1211.5	742	216.91	1225	1059	150.87	1250.6	666.14	213.97	1016.4	46.343	-45.337	1149.2	1330.7	256.9	1099.3	97.902	18.216	1174.6	821.84	215.65	1028.1	1215.9	-20.459	1125.7	1160.4	-240.25	1085.7	66.625	-80.364	1078	1146.1	209.85
746	3.73	1235	866.31	354.54	1298.3	31.704	-19.728	1171.7	359.44	-37.245	1201.4	26.877	-105.03	1241.1	46.848	-9.3337	1149.2	278.14	-28.335	1133.8	195.66	-20.565	1152.6	504.35	-149.07	1245.9	906.87	291.98	1174.4	901.41	345.37	1183.7	1508.6	183.87	1190.9	1044.4	317.6	1194.2	1359.2	-271.44	1261.2	1068.5	-330.55	1309.8	1305.4	-5.3785	1351.4	1706.1	-22.93	1195.6	1541.9	-187.52	1165.3	1190.5	-323.73	1236.6	736.2	-184.08	1322.6	913.35	-345.94	1085.3	1572.2	1.7521	1017.8	1083.4	-70.616	1260.4	320.22	186.4	1245.7	1046	-166.51	1245.3	936.71	-343.28	1014.1	1073.6	37.886	1301.9	549.49	212.12	1250.9	1479.2	-12.703	1320.2	949.16	-287.84	1317.5	51.513	140.01	1227.9	247.24	116.44	1275.6	74.501	119.81	1220.4	64.847	198.68	1175.5	820.92	-214.19	1303.4	532.17	67.399	1308.3	401.15	129.51	1155.1	508.95	-4.9847	1178.5	735.24	-195.44	1180.1	650.48	-175.64	1065.8	136.03	104.55	1265.4	323.58	124.09	1127	149.8	155.69	1186.8	1709.7	-59.266	1272.5	770.82	220.01	1176.3	260.51	-97.812	1177	167.03	67.693	1167.9	1703.3	80.785	1019.6	1451	114.82	1104.4	1173.2	300.64	1217.9	742.1	217.29	1230	1058.7	150.88	1257.2	666.42	214.25	1016.5	46.409	-45.282	1153.3	1330.3	256.92	1099.5	97.838	18.247	1180.6	821.83	216.09	1033	1215.5	-20.268	1131.4	1159.9	-240.43	1085.7	66.636	-80.312	1081.8	1145.9	209.78
